<?xml version="1.0" standalone="no"?>
<!DOCTYPE svg PUBLIC "-//W3C//DTD SVG 20010904//EN"
 "http://www.w3.org/TR/2001/REC-SVG-20010904/DTD/svg10.dtd">
<svg version="1.0" xmlns="http://www.w3.org/2000/svg"
 width="183.000000pt" height="80.000000pt" viewBox="0 0 183.000000 80.000000"
 preserveAspectRatio="xMidYMid meet">

<g transform="translate(0.000000,80.000000) scale(0.100000,-0.100000)"
fill="#000000" stroke="none">
<path d="M0 400 l0 -400 915 0 915 0 0 400 0 400 -915 0 -915 0 0 -400z m1277
225 c27 -24 28 -24 4 -20 -23 4 -71 31 -71 40 0 14 43 2 67 -20z m-137 5 c22
-13 8 -21 -46 -25 l-48 -3 23 19 c25 21 48 24 71 9z m-630 -185 l0 -165 35 0
c24 0 35 -5 35 -15 0 -21 -78 -20 -108 1 -21 15 -22 21 -22 180 l0 164 30 0
30 0 0 -165z m180 145 c0 -16 -7 -20 -30 -20 -23 0 -30 4 -30 20 0 16 7 20 30
20 23 0 30 -4 30 -20z m534 -15 c15 -14 34 -41 42 -60 16 -40 19 -122 4 -160
-12 -31 -57 -75 -78 -75 -9 0 -23 -7 -33 -16 -16 -15 -21 -13 -63 28 -50 48
-66 81 -66 136 0 46 34 122 54 122 8 0 28 11 43 25 36 31 63 31 97 0z m-534
-180 l0 -145 -30 0 -30 0 0 145 0 145 30 0 30 0 0 -145z m302 128 c15 -14 18
-34 18 -145 l0 -128 -25 0 -25 0 0 119 c0 127 -4 151 -26 151 -11 0 -14 -26
-14 -135 l0 -135 -30 0 -29 0 -3 132 c-3 117 -5 133 -20 136 -16 3 -18 -8 -18
-132 l0 -136 -30 0 -30 0 0 135 c0 117 2 135 18 144 9 5 57 10 107 10 68 0 94
-4 107 -16z m442 1 c13 -12 16 -41 16 -145 l0 -130 -27 3 -28 3 -3 133 c-2
108 -5 132 -17 132 -13 0 -15 -23 -15 -135 l0 -135 -30 0 -30 0 0 139 c0 156
-4 148 77 150 26 1 48 -5 57 -15z m-1066 -346 c-3 -7 -11 -13 -18 -13 -7 0
-15 6 -17 13 -3 7 4 12 17 12 13 0 20 -5 18 -12z m366 3 c7 -11 -22 -23 -35
-15 -5 3 -7 10 -4 15 8 12 32 12 39 0z m-309 -63 c-7 -67 -16 -85 -35 -73 -8
5 -9 25 -4 63 8 66 10 72 31 72 13 0 14 -10 8 -62z m-135 -11 c6 -65 -4 -81
-31 -49 -21 27 -35 28 -49 2 -6 -11 -15 -20 -20 -20 -15 0 -12 41 8 88 16 40
19 43 52 40 35 -3 35 -3 40 -61z m619 44 c7 -13 6 -24 -4 -37 -12 -16 -12 -22
0 -41 12 -18 12 -22 0 -27 -15 -5 -45 18 -45 35 0 19 -19 8 -22 -13 -2 -13
-10 -23 -18 -23 -12 0 -15 13 -15 55 0 30 1 58 3 63 2 4 23 7 47 7 33 0 47 -5
54 -19z m304 -3 c4 -12 2 -25 -3 -28 -4 -3 -10 -21 -12 -40 -4 -45 -33 -49
-33 -5 0 17 -4 33 -9 36 -11 8 22 59 39 59 7 0 15 -10 18 -22z m-858 -45 c-9
-59 -13 -67 -30 -53 -9 8 -12 23 -9 43 9 50 12 57 30 57 14 0 15 -7 9 -47z
m173 35 c20 -20 14 -65 -10 -82 -28 -20 -52 -20 -68 -1 -17 20 3 45 36 45 25
0 32 14 13 26 -6 3 -15 1 -19 -6 -4 -7 -13 -9 -19 -5 -9 5 -9 10 0 21 14 17
51 18 67 2z m72 -33 l5 -39 13 27 c6 15 12 34 12 42 0 16 25 21 34 6 3 -4 -2
-27 -10 -49 -12 -28 -24 -42 -42 -47 -32 -8 -39 0 -45 58 -4 41 -2 48 12 45
10 -2 18 -17 21 -43z m124 -2 c-7 -54 -19 -72 -34 -57 -6 6 -7 30 -4 57 5 37
11 47 26 47 17 0 19 -5 12 -47z m296 22 c0 -20 -6 -27 -30 -31 -30 -6 -38 -18
-21 -29 5 -3 12 -1 16 5 8 13 35 13 35 0 0 -5 -9 -14 -20 -20 -44 -24 -91 20
-69 63 16 29 28 37 62 37 22 0 27 -4 27 -25z m110 12 c0 -21 -12 -28 -26 -16
-7 6 -14 6 -18 1 -3 -6 5 -13 19 -16 31 -8 33 -41 4 -56 -25 -14 -69 -5 -69
14 0 9 9 12 28 9 l27 -4 -27 16 c-30 17 -35 34 -16 53 17 17 78 16 78 -1z
m191 3 c19 -11 25 -45 11 -66 -4 -6 -17 -16 -30 -23 -19 -10 -28 -10 -48 4
-28 18 -31 41 -8 73 16 24 44 28 75 12z m119 -7 c0 -8 -9 -17 -20 -20 -12 -3
-23 -18 -28 -35 -10 -41 -27 -31 -28 17 -2 52 0 53 41 53 24 0 35 -5 35 -15z
m107 -35 c-4 -50 -18 -71 -32 -49 -4 8 -12 8 -26 0 -44 -23 -68 42 -29 81 12
12 33 20 56 20 l35 0 -4 -52z m73 40 c0 -9 3 -9 12 0 7 7 20 12 31 12 16 0 18
-6 15 -52 -3 -38 -9 -53 -19 -53 -10 0 -14 11 -13 38 1 20 -2 37 -5 37 -14 0
-31 -25 -31 -46 0 -13 -5 -26 -11 -30 -21 -12 -31 13 -24 60 6 36 11 46 26 46
11 0 19 -5 19 -12z"/>
<path d="M237 126 c-4 -10 -5 -21 -2 -24 9 -9 17 6 13 25 -3 17 -4 17 -11 -1z"/>
<path d="M850 129 c0 -18 2 -19 15 -9 15 12 12 30 -6 30 -5 0 -9 -10 -9 -21z"/>
<path d="M470 74 c0 -9 5 -14 12 -12 18 6 21 28 4 28 -9 0 -16 -7 -16 -16z"/>
<path d="M975 119 c-11 -17 1 -21 15 -4 8 9 8 15 2 15 -6 0 -14 -5 -17 -11z"/>
<path d="M1277 123 c-4 -3 -7 -17 -7 -30 0 -17 5 -23 16 -21 8 2 15 6 15 11
-1 4 -1 16 -1 27 0 20 -11 26 -23 13z"/>
<path d="M1480 109 c-7 -11 -9 -23 -6 -26 10 -10 33 5 39 26 7 28 -19 28 -33
0z"/>
</g>
</svg>
